<svg width="39" height="40" viewBox="0 0 39 40" fill="none" xmlns="http://www.w3.org/2000/svg">
<path d="M19.5371 0H19.4697C8.73336 0 0 8.9372 0 19.9241V20.0828C0 31.0697 8.73336 40.0069 19.4697 40.0069H19.5371C30.2734 40.0069 39.0067 31.0697 39.0067 20.0828V19.9241C39 8.9372 30.2734 0 19.5371 0ZM36.3294 20.0759C36.3294 29.5514 28.7965 37.2602 19.5371 37.2602H19.4697C10.2103 37.2602 2.67733 29.5514 2.67733 20.0759V19.9172C2.67733 10.4486 10.2103 2.73982 19.4697 2.73982H19.5371C28.7965 2.73982 36.3294 10.4486 36.3294 19.9241V20.0828V20.0759Z" fill="#15215C"/>
</svg>
